HIERARCHY
ROOT joint_0
{
	OFFSET 0.000000 0.000000 0.000000
	CHANNELS 6 Xposition Yposition Zposition Zrotation Yrotation Xrotation 
	JOINT joint_1
	{
		OFFSET 11.612000 -0.419000 106.198000
		CHANNELS 3 Zrotation Yrotation Xrotation
		JOINT joint_2
		{
			OFFSET -1.708000 -1.022000 97.564090
			CHANNELS 3 Zrotation Yrotation Xrotation
			JOINT joint_3
			{
				OFFSET -4.121000 -1.538000 97.375000
				CHANNELS 3 Zrotation Yrotation Xrotation
				JOINT joint_4
				{
					OFFSET 5.442000 -2.123000 132.795900
					CHANNELS 3 Zrotation Yrotation Xrotation
					JOINT joint_5
					{
						OFFSET 21.935000 0.195000 82.975100
						CHANNELS 3 Zrotation Yrotation Xrotation
						End Site
						{
							OFFSET 0.000000 0.000000 0.000000
						}
					}
				}
				JOINT joint_6
				{
					OFFSET 4.262000 -30.048000 73.899900
					CHANNELS 3 Zrotation Yrotation Xrotation
					JOINT joint_7
					{
						OFFSET 9.731000 -136.810010 -21.963010
						CHANNELS 3 Zrotation Yrotation Xrotation
						JOINT joint_8
						{
							OFFSET 33.360000 -35.709000 -267.597900
							CHANNELS 3 Zrotation Yrotation Xrotation
							JOINT joint_9
							{
								OFFSET 36.156000 -29.759000 -240.558040
								CHANNELS 3 Zrotation Yrotation Xrotation
								End Site
								{
									OFFSET 0.000000 0.000000 0.000000
								}
							}
						}
					}
				}
				JOINT joint_10
				{
					OFFSET 2.027000 27.734000 74.914920
					CHANNELS 3 Zrotation Yrotation Xrotation
					JOINT joint_11
					{
						OFFSET -5.183000 136.784000 -23.604980
						CHANNELS 3 Zrotation Yrotation Xrotation
						JOINT joint_12
						{
							OFFSET 29.806000 37.229000 -267.809940
							CHANNELS 3 Zrotation Yrotation Xrotation
							JOINT joint_13
							{
								OFFSET 36.890000 46.524990 -237.772030
								CHANNELS 3 Zrotation Yrotation Xrotation
								End Site
								{
									OFFSET 0.000000 0.000000 0.000000
								}
							}
						}
					}
				}
			}
		}
	}
	JOINT joint_14
	{
		OFFSET -7.290000 -102.873990 -124.314940
		CHANNELS 3 Zrotation Yrotation Xrotation
		JOINT joint_15
		{
			OFFSET -15.466000 -19.909010 -438.533020
			CHANNELS 3 Zrotation Yrotation Xrotation
			JOINT joint_16
			{
				OFFSET -26.899000 -18.922000 -464.797000
				CHANNELS 3 Zrotation Yrotation Xrotation
				JOINT joint_17
				{
					OFFSET 179.329000 -12.011000 -84.174000
					CHANNELS 3 Zrotation Yrotation Xrotation
					End Site
					{
						OFFSET 0.000000 0.000000 0.000000
					}
				}
			}
		}
	}
	JOINT joint_18
	{
		OFFSET -6.225000 101.546000 -125.479980
		CHANNELS 3 Zrotation Yrotation Xrotation
		JOINT joint_19
		{
			OFFSET -13.973000 7.996000 -438.963010
			CHANNELS 3 Zrotation Yrotation Xrotation
			JOINT joint_20
			{
				OFFSET -44.294000 5.716000 -463.813970
				CHANNELS 3 Zrotation Yrotation Xrotation
				JOINT joint_21
				{
					OFFSET 178.505000 -4.689000 -85.139000
					CHANNELS 3 Zrotation Yrotation Xrotation
					End Site
					{
						OFFSET 0.000000 0.000000 0.000000
					}
				}
			}
		}
	}
}
MOTION
Frames: 17
Frame Time: 0.016667
-2698.443359 848.749146 1136.462036 0.361021 3.030213 -0.057046 -1.135921 14.462286 4.187610 -2.826535 -2.424822 -0.863012 -4.160995 2.285610 0.746552 -0.628739 -2.792414 5.400579 0.000000 0.000000 0.000000 -7.849160 -61.108165 6.244682 13.286550 -4.459658 4.393434 11.906804 -54.267511 -0.592161 0.000000 0.000000 0.000000 0.260965 -22.016624 10.088904 9.049294 -38.004809 -10.384663 -17.266522 -60.664537 -5.005229 0.000000 0.000000 0.000000 -0.022352 -22.390184 -3.914890 -1.015267 23.938571 2.551889 0.323406 -4.070969 -0.137473 0.000000 0.000000 0.000000 3.490033 -1.109639 2.211179 3.711848 8.183193 2.326900 3.993464 -1.751838 1.775242 0.000000 0.000000 0.000000 
-2691.230469 842.135010 1135.687988 1.094076 3.123621 0.380201 -1.289933 14.656526 4.106184 -2.874077 -2.443589 -0.819646 -4.144806 2.278156 0.743660 -0.709145 -2.738708 5.272295 0.000000 0.000000 0.000000 -7.295836 -60.568433 5.614897 13.410790 -5.036864 4.299724 12.246115 -54.168610 -1.804882 0.000000 0.000000 0.000000 0.258586 -22.914836 10.058379 8.804249 -37.069165 -10.178644 -16.386376 -61.194939 -6.219336 0.000000 0.000000 0.000000 0.277319 -22.130452 -3.954760 -0.430402 19.227080 1.173143 0.764765 -3.189267 0.119274 0.000000 0.000000 0.000000 3.336376 -0.313693 2.303948 3.480783 7.065555 2.093032 3.706434 -1.377907 1.653697 0.000000 0.000000 0.000000 
-2683.333008 835.211670 1133.781006 2.001558 3.055690 0.886726 -1.482746 14.852708 4.025889 -2.960886 -2.502307 -0.773503 -4.137430 2.293047 0.744612 -0.802222 -2.662611 5.086913 0.000000 0.000000 0.000000 -6.911097 -59.953979 5.064214 13.356771 -5.592263 4.187763 12.563875 -54.173306 -2.554412 0.000000 0.000000 0.000000 0.298399 -23.868503 9.951100 8.719171 -35.985195 -10.081020 -15.265399 -61.454973 -8.159788 0.000000 0.000000 0.000000 0.433965 -21.480018 -4.201597 -0.011377 15.167386 0.283791 0.891495 -0.850916 0.335614 0.000000 0.000000 0.000000 3.156767 0.473772 2.349803 3.238686 6.375696 1.917575 3.432585 -1.455629 1.524084 0.000000 0.000000 0.000000 
-2674.786621 827.932922 1130.813965 2.920949 2.912265 1.396629 -1.692681 14.921408 4.005500 -3.033400 -2.531460 -0.774820 -4.069834 2.337090 0.740851 -0.892105 -2.557884 4.865900 0.000000 0.000000 0.000000 -6.604729 -59.213514 4.507805 13.140686 -6.162400 4.089237 12.857144 -54.306788 -2.904744 0.000000 0.000000 0.000000 0.374048 -24.811047 9.793511 8.808673 -34.779195 -10.065343 -13.962915 -61.636661 -10.740744 0.000000 0.000000 0.000000 0.612792 -20.580467 -4.513248 0.380168 11.628763 -0.267284 0.935539 2.218390 0.565741 0.000000 0.000000 0.000000 2.991800 1.232762 2.427283 3.028566 6.001608 1.757960 3.198390 -1.969220 1.400127 0.000000 0.000000 0.000000 
-2666.080078 820.288086 1127.251953 3.784835 2.650342 1.803571 -1.846940 15.001132 4.101083 -3.049239 -2.563231 -0.786160 -3.938255 2.383019 0.744479 -0.971857 -2.457392 4.620666 0.000000 0.000000 0.000000 -6.367818 -58.506317 4.115341 12.839665 -6.699529 3.877233 13.157596 -54.404610 -3.034664 0.000000 0.000000 0.000000 0.381276 -25.654994 9.579079 8.781111 -33.666581 -10.077963 -12.974260 -61.538086 -12.742467 0.000000 0.000000 0.000000 0.631724 -19.718136 -4.633221 0.519096 9.262246 -0.630520 0.796049 4.747723 0.678502 0.000000 0.000000 0.000000 2.784889 1.745369 2.624057 2.809691 6.367172 1.700889 2.985979 -2.849196 1.275063 0.000000 0.000000 0.000000 
-2657.330811 812.137390 1123.021973 4.512791 2.236468 1.965888 -1.872582 15.112079 4.450930 -2.932038 -2.609778 -0.813085 -3.696676 2.417805 0.759811 -1.018574 -2.365839 4.322157 0.000000 0.000000 0.000000 -6.217987 -58.018710 4.045918 12.500258 -7.072879 3.390468 13.468751 -54.326958 -2.998714 0.000000 0.000000 0.000000 0.226405 -26.255315 9.261400 8.432553 -32.902808 -10.113653 -12.664053 -60.974184 -13.269605 0.000000 0.000000 0.000000 0.255205 -19.128887 -4.254740 0.095145 8.779580 -0.793229 0.287336 5.638870 0.513898 0.000000 0.000000 0.000000 2.482673 1.875459 3.046444 2.534650 7.814103 1.876565 2.780840 -4.208127 1.138760 0.000000 0.000000 0.000000 
-2648.348633 803.481079 1117.938965 5.109665 1.711740 1.878905 -1.800190 15.161928 5.104616 -2.680353 -2.632167 -0.903147 -3.325323 2.439259 0.777491 -1.028127 -2.259533 3.961120 0.000000 0.000000 0.000000 -6.161222 -57.687050 4.240322 12.088129 -7.304183 2.663338 13.779904 -54.125700 -2.715411 0.000000 0.000000 0.000000 -0.060293 -26.653475 8.863252 7.869350 -32.390663 -10.199522 -12.798173 -60.030491 -12.821671 0.000000 0.000000 0.000000 -0.455299 -18.723615 -3.419049 -0.826684 9.911452 -0.689207 -0.556306 5.244026 0.110138 0.000000 0.000000 0.000000 2.112749 1.701590 3.700969 2.223351 10.155181 2.239903 2.612192 -5.989315 1.005427 0.000000 0.000000 0.000000 
-2640.066162 794.932861 1113.734985 5.663143 1.205253 1.773844 -1.746819 15.331356 5.757759 -2.457148 -2.629857 -0.981545 -2.965677 2.441567 0.812775 -1.039845 -2.232243 3.647515 0.000000 0.000000 0.000000 -6.065374 -57.307168 4.480108 11.670666 -7.707875 2.000833 14.153297 -53.911316 -2.451224 0.000000 0.000000 0.000000 -0.322914 -27.170450 8.564950 7.048719 -31.694827 -10.281053 -12.999156 -59.110280 -11.886332 0.000000 0.000000 0.000000 -1.119194 -18.582451 -2.711955 -1.711144 11.751826 -0.427148 -1.299551 4.321384 -0.285262 0.000000 0.000000 0.000000 1.758631 1.100261 4.388321 1.954392 13.112069 2.487729 2.549920 -7.298611 0.929897 0.000000 0.000000 0.000000 
-2633.359619 786.929871 1111.703979 6.173787 0.817844 1.750447 -1.769523 15.792625 6.331628 -2.359144 -2.591559 -1.044157 -2.695173 2.430145 0.877487 -1.080919 -2.406520 3.462098 0.000000 0.000000 0.000000 -5.830721 -56.842916 4.659063 11.337177 -8.481560 1.619990 14.664671 -53.748087 -2.449286 0.000000 0.000000 0.000000 -0.449260 -28.002907 8.492494 5.906950 -30.557879 -10.342078 -13.023878 -58.509632 -10.655254 0.000000 0.000000 0.000000 -1.430533 -18.974784 -2.526086 -2.183730 14.048386 0.058330 -1.568493 3.161383 -0.482106 0.000000 0.000000 0.000000 1.452256 -0.146994 5.033419 1.767486 16.701725 2.409265 2.658752 -7.469677 0.956737 0.000000 0.000000 0.000000 
-2627.874023 779.240173 1111.180054 6.659847 0.472487 1.707598 -1.832498 16.524301 6.992179 -2.330981 -2.523971 -1.134394 -2.480617 2.384004 0.962918 -1.135557 -2.748593 3.356258 0.000000 0.000000 0.000000 -5.473255 -56.409213 4.825992 11.067139 -9.458678 1.410596 15.286337 -53.591015 -2.614376 0.000000 0.000000 0.000000 -0.518067 -28.913484 8.574948 4.601395 -29.271294 -10.507635 -12.984687 -58.031182 -9.048183 0.000000 0.000000 0.000000 -1.544118 -19.799392 -2.641656 -2.450763 17.086460 0.816054 -1.531976 1.641833 -0.564794 0.000000 0.000000 0.000000 1.109628 -1.947378 5.727602 1.580978 20.953615 2.109106 2.926495 -6.604443 1.072915 0.000000 0.000000 0.000000 
-2622.471191 771.718994 1111.562012 7.203808 0.180098 1.741671 -1.995114 17.181655 7.470068 -2.328270 -2.482958 -1.208114 -2.323730 2.331489 1.037368 -1.197976 -3.046569 3.337689 0.000000 0.000000 0.000000 -4.987830 -55.780950 4.814465 10.795201 -10.433279 1.357978 15.846615 -53.518439 -2.802248 0.000000 0.000000 0.000000 -0.541555 -29.611137 8.660625 3.484099 -28.136070 -10.820068 -12.982427 -57.502262 -7.564560 0.000000 0.000000 0.000000 -1.631076 -20.343790 -2.780616 -2.701394 19.497688 1.435900 -1.528562 0.441422 -0.640422 0.000000 0.000000 0.000000 0.762351 -3.841141 6.361703 1.384564 25.032156 1.686734 3.292000 -5.049842 1.241658 0.000000 0.000000 0.000000 
-2616.299316 764.159119 1112.579956 7.869508 0.021037 1.954895 -2.356227 17.425638 7.498172 -2.335024 -2.507231 -1.249258 -2.216207 2.336971 1.096878 -1.276420 -3.144963 3.458090 0.000000 0.000000 0.000000 -4.424090 -54.750402 4.566875 10.504928 -11.277612 1.491503 16.225230 -53.631261 -2.954815 0.000000 0.000000 0.000000 -0.476192 -30.019532 8.640775 2.620915 -27.200094 -11.223605 -13.101694 -56.847350 -6.449090 0.000000 0.000000 0.000000 -1.795840 -20.186739 -2.733515 -3.079547 20.323863 1.552201 -1.842923 -0.168084 -0.817372 0.000000 0.000000 0.000000 0.492788 -5.695350 6.858183 1.219130 28.573956 1.199761 3.741519 -3.053866 1.450112 0.000000 0.000000 0.000000 
-2609.779297 756.608093 1114.448975 8.629288 -0.015972 2.300519 -2.899737 17.393777 7.202192 -2.372654 -2.579688 -1.291739 -2.147652 2.393131 1.154003 -1.373985 -3.126159 3.717606 0.000000 0.000000 0.000000 -3.834877 -53.469752 4.209752 10.244962 -12.003380 1.817836 16.481799 -53.896537 -3.135496 0.000000 0.000000 0.000000 -0.319648 -30.249370 8.574944 1.861152 -26.350919 -11.685395 -13.287364 -56.129599 -5.502259 0.000000 0.000000 0.000000 -1.988208 -19.601620 -2.577587 -3.522076 20.099293 1.323792 -2.347260 -0.477389 -1.058944 0.000000 0.000000 0.000000 0.314376 -7.697867 7.259602 1.087424 31.889861 0.650763 4.350127 -0.434670 1.727430 0.000000 0.000000 0.000000 
-2603.437500 749.627136 1116.727051 9.230784 -0.067115 2.617698 -3.393005 17.314036 6.895088 -2.360592 -2.652607 -1.326371 -2.035364 2.436750 1.178946 -1.433803 -3.094443 3.926405 0.000000 0.000000 0.000000 -3.324961 -52.251725 3.849107 9.959859 -12.596502 2.193801 16.658708 -54.101723 -3.195644 0.000000 0.000000 0.000000 -0.165447 -30.392591 8.467445 1.234662 -25.601498 -12.051844 -13.402213 -55.430466 -4.797740 0.000000 0.000000 0.000000 -2.119697 -18.806310 -2.365358 -3.879904 19.437959 1.062368 -2.805733 -0.569086 -1.267186 0.000000 0.000000 0.000000 0.237743 -9.447839 7.564502 0.987693 34.617578 0.169723 5.005565 1.842594 2.007314 0.000000 0.000000 0.000000 
-2597.642334 743.647156 1119.167969 9.462140 -0.208998 2.810926 -3.661516 17.303816 6.736396 -2.222134 -2.678730 -1.314948 -1.816160 2.432257 1.144291 -1.414292 -3.115112 3.933039 0.000000 0.000000 0.000000 -2.946092 -51.225501 3.496490 9.567786 -13.111944 2.529327 16.763482 -54.110030 -2.970064 0.000000 0.000000 0.000000 -0.067171 -30.536622 8.299016 0.774630 -24.951156 -12.196956 -13.386367 -54.808566 -4.420015 0.000000 0.000000 0.000000 -2.100912 -17.935243 -2.165825 -4.031011 18.716209 0.994109 -3.044016 -0.483817 -1.367632 0.000000 0.000000 0.000000 0.283237 -10.668843 7.775917 0.970080 36.610868 -0.190593 5.595057 2.748214 2.233490 0.000000 0.000000 0.000000 
-2592.206299 738.456238 1121.947021 9.442591 -0.376974 2.964131 -3.793179 17.248907 6.575562 -2.002925 -2.662155 -1.243366 -1.535422 2.406752 1.062627 -1.343113 -3.148410 3.808311 0.000000 0.000000 0.000000 -2.670382 -50.265117 3.116831 9.098306 -13.565430 2.884964 16.782523 -54.002813 -2.525697 0.000000 0.000000 0.000000 0.015113 -30.673804 8.076023 0.438293 -24.361197 -12.166029 -13.309694 -54.244373 -4.306267 0.000000 0.000000 0.000000 -1.982995 -16.924841 -1.989018 -4.029043 17.715381 1.002396 -3.141941 -0.200961 -1.394545 0.000000 0.000000 0.000000 0.443645 -11.559091 7.879021 1.049367 38.099825 -0.485799 6.125561 2.543868 2.422036 0.000000 0.000000 0.000000 
-2586.936523 733.786377 1124.808960 9.346258 -0.528046 3.135401 -3.850915 17.113315 6.414266 -1.801848 -2.633236 -1.175797 -1.290731 2.377440 0.983196 -1.263497 -3.188804 3.658799 0.000000 0.000000 0.000000 -2.447337 -49.430804 2.795544 8.681653 -13.919073 3.236183 16.807862 -53.797602 -2.131634 0.000000 0.000000 0.000000 0.101612 -30.708627 7.868024 0.178243 -23.848176 -12.094438 -13.224037 -53.714919 -4.233865 0.000000 0.000000 0.000000 -1.889486 -15.860342 -1.828660 -3.975317 16.537305 0.988387 -3.193689 0.181688 -1.395783 0.000000 0.000000 0.000000 0.565550 -12.222507 7.853659 1.095743 38.978668 -0.795012 6.348421 2.113040 2.497319 0.000000 0.000000 0.000000 
